# xmcd
#
# Track frame offsets:
#	150
#	12226
#	28477
#	43242
#	53113
#	61776
#	79255
#	88941
#	100038
#	108636
#	117023
#
# Disc length: 1698 seconds
#
# Revision: 0
# Processed by: cddbd v1.4PL0 Copyright (c) Steve Scherf et al.
# Submitted via: dBpowerAMP V4.0
#
DISCID=8f06a00b
DTITLE=Chosen Few - Because Of Christmas Day
DYEAR=1900
DGENRE=Country
TTITLE0=The Most Wonderful Time
TTITLE1=Who Would Imagine A King
TTITLE2=Christmas Like It Used To Be
TTITLE3=Mele Kalikimaka
TTITLE4=He's The Greatest Gift
TTITLE5=Mary's Boy Child
TTITLE6=Feliz Navidad
TTITLE7=It Came Upon A Midnight Clear
TTITLE8=Adeste Fideles
TTITLE9=Santa Claus Is Comin'
TTITLE10=It Came Upon A Midnight Clear (Accapella
EXTD=
EXTT0=
EXTT1=
EXTT2=
EXTT3=
EXTT4=
EXTT5=
EXTT6=
EXTT7=
EXTT8=
EXTT9=
EXTT10=
PLAYORDER=
